<svg xmlns="http://www.w3.org/2000/svg" viewBox="0 0 823.02 448.27"><defs><style>.cls-1{fill:#040404;}.cls-1,.cls-2{fill-rule:evenodd;}.cls-2{fill:#fefefe;}</style></defs><title>Asset 1</title><g id="Layer_2" data-name="Layer 2"><g id="Layer_1-2" data-name="Layer 1"><path class="cls-1" d="M10.45,400.49V117.27c0-22.38,14.56-38,36.11-38H298.42l-37.05.25,37.05-1.2c3-.11,14.57-20.54,17.8-24,8-8.63,11.63-13.06,21.53-20.28,17.12-12.49,34.32-20.1,60.46-23.16l10.45-1c5.91-.69,9.28,1,14.25,1,19.92,0,48.42,13.76,60.06,22.62,16.42,12.49,27.91,26.13,37.82,44.86l1.91-.17L556,79.26H775.5c12.09,0,21,3.74,26.87,10.19,4.4,4.81,10.2,18,10.2,26.87V401.43c0,21.65-16.4,36.12-38,36.12H43.72c-19,0-33.27-18.33-33.27-37.07ZM384.89,2.21C365.9,5.05,342,17,329.57,26.79A180.12,180.12,0,0,0,309.1,46.23c-2.67,3.15-15,22.58-17.33,22.58H49.42A57.16,57.16,0,0,0,18,78.29C12.63,82,1.9,94.42,1.9,103c0,4.15-1.9,3.45-1.9,7.6v287C0,425.65,17.8,448,45.62,448l729,.26,9.47-1.21c10.86-1.29,20.48-7.7,26.85-14,5.41-5.36,12.12-18.77,12.11-28.75V118.22c0-26.64-18.17-49.42-44.67-49.41H527.46C510.48,36.73,467.73.38,419.11.38L400,0Z"/><path class="cls-2" d="M403,94.47c-.78,3.32-1.9,3.2-1.9,6.65v6.65c0,3.17,1.94,7.19,3.8,8.55.3-3.59,1.9-6.34,1.9-9.5s1.71-2.79,5-2.9l-1-4,4.75,2.19-1.07,3.77c4.68-.39,4.58-1.15,2.92-4.93L420,102l2.83-.73,3.85.79.09,2.56,6.52,1.94,4.8-.69v-1c-5.91,0-7.51-.7-6.65-4.75-4-.09-4.63.11-5.71-2.89l-4.69,1,.9-2.87c-2-1.36-1.24-1.52-3.83-1.69l-8.52-1.16C407.25,92.21,405.64,93.84,403,94.47Z"/><path class="cls-2" d="M478.5,114.33l-3.43-.82,1.07,3.76a6,6,0,0,0-1,3.8c0,3.63-.3.34,1,2.85l-2.2.12,4.07,8.42-1.87,4.76,2.12,0L477,142l.84,1.66-1.31,2.12-.4,3.77c.84.47,1.9.62,1.9,1.9,0,3.24-1.21,2.58-2.49,2l-2.26,5.56c1.45,3,1.52,5.24,5.7,5.7l.21,3.18,2.6-2.07,3.6.85-1.63-7.53,5.67-1.09v-2.85l-5.89-.41,3.58-1.52.4-3.77h-2.85v-4.75h-1.9c1.67-1.58,1.79-.69,1-3l3.62,1,1.09-1.85.05,2.93,1.85-1v1.9h4.75c-2.19-4.13-7.6-9.28-7.6-13.31v-.95c0-2.36-2.38-3.58-3.8-5.7,2.13-.5,2.18-1,4.75-1h2.85c-.87-3.29-1.65-3.46-5.7-3.8.45-1.95,1.81-5.71,3.8-5.7,1.74,0,1.11,1.9,2.85,1.9,1.39,0,1.39-1.17,1.9-1.9-4.5-1.05-3.42-1.84-7.6-1-.87-3.27-1.88-4.44-5.74-4.76l1-4.74-5.54,0Z"/><path class="cls-2" d="M403,173.35l-6-1.66,4.45,6.68L397,182l2.1,4.62-.94,2.71,4.37-.26-4.33,3.27c0,2.09-.29,4.75,1.9,4.75,3.73,0,4.75-4.7,4.75-8.55v-1.9l0-2-3.13-1.31,3.11-1.49,0-9.36,1.8-.84,4.8.69c.31-3.71-.57-2.88,2.86-3.8v-1.9c-3,.25-3.37,1-6.65.95-2.14,0-2.08.75-3.8,1.9V166.7H403Z"/><path class="cls-2" d="M676.66,203.76c0,1.85.31,1.67.55,2.88l.4,3.77v.95c0,2.91-2.76,4.65-4.83,5.83l-5.62-3.93h2.37l-.47-7.61H671v-2.85c3,1.24,2.93,0,3.84-3.85l2.82,1.95c-.3,1.11-1,2.59-1,2.85ZM652,119.36c-.28,2.9-.6,2.84-1.11,6.45L650,136.28,649.78,162,651,175.25c.67,7.27,3.8,2.86,3.8,9.51l.22,12.38-1.16,10.43c-2.65,1.07-2.85,2.82-2.85,6.65v55.12h1.9v3.8H651V275h1.9v11.4l0,2-2.87.9c-.25,3-1,3.37-1,6.65v3.8c0,2.67.42,1.76,1.76,2.8L652,300.7v2.85c4,1.08,1.67,1.9,4.75,1.9l25.65-.24,4.76.24h57c2.19,0,2.85-.66,2.85-2.85V284.54a3.65,3.65,0,0,0-3.8-3.8H690.92c-5.43,0-11-.43-11.4-5.7,4.49-.1,3.73,1,4.7-2.66l-4.7-1.15v2.85h-.95l-.26-39.95,1.21-10.42c.27-2.27,1.33-3.8,3.8-3.8h26.61c3.39,0,7.6-.47,7.6-3.8V200.91c0-2.57-.46-2.62-1-4.87L708,197.1l-7.69.52-19.66-3.43-1.27-3.78.95-3.75-.83-6.67V156.24c0-6.46,1.09-12.36,7.61-12.36l36.13-.22,18,1.18.43-2,.52,2c1.6-1.11,1.9-.13,1.9-2.85V119.42L663.33,118Z"/><path class="cls-2" d="M436.43,155.62l-1.15,6.33h1.9c-.47.68-2,2.45-2.11,2.89l1.16,8.52-2.24.21,2.2,2.62L434.32,181h2.85v2.86l-3.79-1.91c0,10.54,0,16.07,0,26.61,2.27-1.66,2.86-3.66,2.85-7.61l.81,0,1.09,5.67c3.51-.93,4.75-3.39,4.75-7.6,0-2.9-.91-3.83-1.71-5.51l1.76-2.12-2-3.82,1-1.89-5,.58,3.11-1.5V178.1c0-3.72,1.44-.1,1.9-5.7l-2.07-.06,2.21-5.69-2-4.71c.65-1.16,1-1,1-2.85v-2.85c0-3.63.29-.35-1-2.86Z"/><path class="cls-2" d="M495.14,126.78V123c-.84.47-1.9.62-1.9,1.9,0,5.58,2.87-1.36,5.12,7.23,1.1,4.21,2.44,6,4.38,8.92-3.26-.87-4.43-1.88-4.75-5.7h-1.9v2.85c0,3.63.29.35-1,2.85,2.84,3.27,3.1,7.35,7.6,8.55l-.32,16.17L504.64,256v10.46a5.79,5.79,0,0,1-.9,3.78l.91,2.87,1.69,0,1.16-5.67a6,6,0,0,1-.95-3.8V257l2,0-1.07,3.76h1.9V275c0,1.7-7.2,9.46-8.55,10.45v-2.85c-4.47.38-4.75,3.06-4.75,7.6V295c0,2.57.45,2.62,1.16,5.08l3.6-2.23c-.5,2.13-1,2.19-1,4.75l0,4.24,5.66.52h35.16c2.13,0,2.09-.75,3.8-1.9-1.53-2.89-1.38-4.24-4.75-2.85.79-3.4,1.9-4.46,1.9-8.55v-2.85c0-7.5-11.4-17-11.41-24.71V146.74c0-4.41,8.55-6.18,8.55-13.31v-9.5a5.4,5.4,0,0,0-4.75-4.75H507.5C499.89,119.18,501.37,126.26,495.14,126.78Z"/><path class="cls-1" d="M676.66,203.76c0-.26.65-1.74,1-2.85L674.8,199c-.91,3.81-.83,5.09-3.84,3.85v2.85h-1.9l.47,7.61h-2.37l5.62,3.93c2.07-1.19,4.83-2.92,4.83-5.83v-.95l-.4-3.77C677,205.43,676.66,205.61,676.66,203.76Z"/><path class="cls-1" d="M403,166.7h.95v2.85c1.72-1.15,1.67-1.9,3.8-1.9,3.27,0,3.67-.7,6.65-.95v1.9c-3.43.92-2.55.09-2.86,3.8l-4.8-.69-1.8.84,0,9.36-3.11,1.49,3.13,1.31,0,2v1.9c0,3.86-1,8.56-4.75,8.55-2.19,0-1.85-2.66-1.9-4.75l4.33-3.27-4.37.26.94-2.71L397,182l4.36-3.65-4.45-6.68,6,1.66V166.7ZM440,153.38c1.25,2.52,1-.77,1,2.86v2.85c0,1.83-.3,1.69-1,2.85l2,4.71-2.21,5.69,2.07.06c-.46,5.6-1.9,2-1.9,5.7v6.65l-3.11,1.5,5-.58-1,1.89,2,3.82-1.76,2.12c.8,1.68,1.71,2.61,1.71,5.51,0,4.21-1.25,6.67-4.75,7.6L437,200.94l-.81,0c0,3.95-.58,5.95-2.85,7.61,0-10.54,0-16.08,0-26.61l3.79,1.91V181h-2.85l1.87-4.77-2.2-2.62,2.24-.21-1.16-8.52c.15-.44,1.64-2.2,2.11-2.89h-1.9l1.15-6.33,3.59-2.24ZM403,94.47c2.68-.63,4.29-2.26,6.65-1.9l8.52,1.16c2.59.17,1.8.33,3.83,1.69l-.9,2.87,4.69-1c1.08,3,1.66,2.79,5.71,2.89-.86,4.05.74,4.75,6.65,4.75v1l-4.8.69-6.52-1.94-.09-2.56-3.85-.79L420,102l-2.76-1.07c1.66,3.78,1.76,4.54-2.92,4.93l1.07-3.77-4.75-2.19,1,4c-3.25.12-5-.26-5,2.9s-1.6,5.91-1.9,9.5c-1.86-1.36-3.8-5.38-3.8-8.55v-6.65C401.06,97.67,402.18,97.79,403,94.47Zm0,0H400.1c-1,4.22-2.35,3.82-2.87,8.55l-1.13,11.39-.33,16.15.54,19,.42,4.77-3.27,76-.16,15.2-.79,21.86c-.39,7.87,5.79,12.36,13.3,12.36h6.65c23.36,0,32.27-20.4,34.39-41.8l.77-11.42.26-22.82L446.67,122c-.32-18.53-13.28-30.41-32.31-30.41H403Z"/><path class="cls-2" d="M359.24,257h-4.76c.39,4.61,1.45,4,4.81,5.79l1.81-.87,3.84.78v-2.85c0-3.63-.29-.35,1-2.85-2.76-.82-1.85.41-.95-1.9h-5.7Z"/><path class="cls-2" d="M317.45,120.26l-1,5.57c-3.43.92-2.54.09-2.8,3.6l3.86,1.2-1.07,3.76h-1.9v-3.8c-1.41,1.62-1.9,1.65-1.9,4.75,0,8.42-7.4,23.9-7.56,33.48l4.71-1.17c-.57,2.11-.22,2.85-2.85,2.85h-1.9c-4.22,0-7.6-8.49-7.61-13.31v-1c0-16.25-3.77-34-17.11-37.06l0,2.11-4.71-1.17V122h-1.9v-2.85h-2.85c-2.9,0-3.84.91-5.7,1.9v5.7c0,3.52-.15,2.47,1.13,4.82l-1.13,2.79c3,1.2,3.07,4.94,4,8.39.82,3.16,2.23,5.93,3.28,9.08,2.37,7.15,4.07,12.25,6.42,19.24,4.15,12.32,8.1,26.67,11.17,39.36l-1.07,3.77h2.85c.45,5.36,2.85,7.58,2.85,14.26v2.85c0,2.43-.23,2.3-.25,3.84l-.7,8.52-.45,1.53-7.12,9.92,3.78-2,.36,2.32,4.39-3.27v9.5c0,3.72-1.43.1-1.9,5.7h-2.85l-.07,3.66,4.82-1.75v4.75l-2,.43,2,.52,0,1.76-1.85,1.09h1.9v3.8h-1.9v1.9h1.9v5.7c0,5-5.7,2.78-5.7,5.7a2.23,2.23,0,0,0,1.9,1.9c.57,0,2-1.31,3-1.92l.72,6.34-4.64,2.23,3.95.43-2,.52v1.9h1.9l0,2.8,2.86-.86,4.94,1.8-1.06-3,2.77,1.08,2.87-.9v1.9c8-1.86,12.36-6.09,12.42-16l2.78-1.13v-3.8h-1.9v2.85c-1.6-1.11-1.9-.14-1.9-2.85V277.89c0-1.56.57-2.85,1.9-2.85,1.75,0,2.42,2.18,3,4.07l11.22-6.92-.6-2.34-3.15-4.3.94-3.13-4.94-1.12,2-.53,0-5.56L326,254.13c1.84-.15,3.8,0,3.8-1.9,0-1.33-1.29-1.9-2.85-1.9H325c-2.13,0-2.08.75-4.3,1.87l.49-4.72c.13-2.15-4.75-7.12-4.75-9.51V225.62l4.06-.41-2.9-1.83-1,.13,10.25-39.71c1.6-1.11,1.9-.14,1.9-2.85,0-15.45,15.2-35.74,15.2-53.22V123c-1.87-1-2.8-1.9-5.7-1.9l-2.67-.07-1.13-2.78-3.75,0,.75,3-3.68-3.14Z"/><path class="cls-2" d="M403,94.47V91.62h11.41c19,0,32,11.88,32.31,30.41l1.21,81.73-.26,22.82L446.85,238c-2.12,21.4-11,41.8-34.39,41.8h-6.65c-7.51,0-13.69-4.49-13.3-12.36l.79-21.86.16-15.2,3.27-76-.42-4.77-.54-19,.33-16.15L397.23,103c.52-4.74,1.9-4.33,2.87-8.55ZM371.6,66l-4,3.84L366.84,66h-1.9v17.1c0,2.34,6.65,8.07,6.65,14.26l.32,2.86-2.22,133v29.46c0,4.15-1.9,3.45-1.9,7.61,0,8.37-7.61,17.6-7.6,28.51,0,2.89.91,3.83,1.9,5.7h57c8.83,0,13.2-3.32,19.21-3.41l-9.46,4.5-2.15,4.62c2.61.61,3.86,1.9,5.7,1.9h1.9a11.56,11.56,0,0,1,10.23-6.53l3.08,6.52h.95l.19-3.61,1.71-2.09h-1.9v-1.9c4.52-.1,6.29-.33,6.72-4.57l3-1.2L457,295.58l7.7-1.54v-3.8c0-4.63,3.2-1.85,4.71-5.54l3.84.79.37-3.52,2.49-4.09L474,277.7l2.23-1.83-2-2.56,2.9-1.15-1.07-8.54c-.52-3.46,1.91-3.22,1.9-7.61v-4.75c0-3.24-1.21-2.58-2.9-1.88l-.9-2.87c-2.12.57-2.85.22-2.85,2.86v1.9c0,4.15,1.9,3.45,1.9,7.6v3.8h-2.85c.87,3.27,1.9,2.51,1.9,3.8,0,2-9.71,13-11.41,14.26.82-3.53,3.8-10,5.35-14.61,2.22-6.6,2.25-9.24,3.33-16.73l1.78-17.12V177.15c7.3.61,5.12,8.19,9.51,11.41v-3.8h3.8c-.71,1.06-2.85,3.2-2.85,3.8s1.31,2,1.9,2.85l-2.12,0,1.35,4.78L481.84,199c.8,1.67,1,4.75,2.85,4.75.08,0,4.08-2.49,4.71-2.68l3.84.78V200l2.6.06-1.65-8.61c-3.56.39-2.88,1.75-8,2.49l3.32-4.47,1.85,1v-1.9h1.9V185.7c0-4.58-1.81-5.09-4.49-6.05l-4,1.32.9-2.87c-3.56-2.39-5.18-7.17-10.57-7.57l1.05,3.8-4.75-1V112.53c0-15.74-11-29.61-20.2-36.82-8.78-6.87-28.75-12.6-44.43-12.6h-39C368.71,66.53,367.88,65.65,371.6,66Z"/><path class="cls-2" d="M210,137.24l.95,2.85c-3.51,5.24-14.26,23.78-14.26,31.36,0,3.07-7.12,10.76-9.48,12.31l-2.67-1-3.06-11.34h1.78l.12-3.81-3.07,0,1.17-10.43h4.75v-2.85h-4.75l.07-3.62,2.77-1.08,3.07.85-1.15-4.71h-2.85c1.14-2.67,1.68-1-1-1.9v1.9h-1.9c0-8.46-3.21-9.94,2.78-15l-2.78-1.13V123c-3-.25-3.37-1-6.65-1h-9.5c-3.21,0-6.65,1.68-6.65,4.75v1c0,2.57-.46,2.62-1,4.75h1.9v2.85c0,2.13-.75,2.09-1.9,3.8.65,1.16.95,1,1,2.85,0,2.89-.43,3.48-1.07,5.74l1.24,3.83-1.13,2.78c.64,1.2,1.9,3.14,1.9,4.75,0,2.13-.75,2.08-1.9,3.8,2.32.84,2.85,1.09,2.86,4.75v19a5.6,5.6,0,0,0,.95,3.8c-.62,1.1-1.06,1.06-1.22,2.87l1.22,20.89c.14,2.2-.33,2.51-.95,3.8a6,6,0,0,1,.95,3.8v23.76h-1.9c.82,2.76-.41,1.86,1.95.95l.91,5.71h-2.85v2.85h1.9v4.75h-1.9c.87,3.27,1.9,2.51,1.9,3.8,0,3.28-.7,3.68-1.09,6.77l2,2.59-1.86,1.09h1.9V276h-2.85c2.37,3.54,2.73,1.22,2.85,6.65h-1.9l0,6.51,1.86,1.09-2.62-.09,2.62,8.64h-1.9v1.9c4.32,1.57.78,1.64,3.77,3.83,1.43,1,3.63.87,5.68,1.55l5.75-.63v1c-4.5,0-3.77-.81-4.76,2.85,1.16-.65,1-.95,2.86-1l5.74,0-1.94-2.81c6.67.73-.93,1.08,5.88,2.79l-1.13-2.78c5.71-.48,2.89-2,6.51-4.71l1.09,1.85v-4.75h-1.9l.05-3.88,1.85,1v-5.71h-2.85c1.81-2.51.16-2.06,2.85-.95v-2.85l0-2-3-.93,1-3.71,2.69.83,1.2-2.93L186.16,275l1.12-3.84,1.85,1,0-4.64-3.77-1.07c2.11-2.93-.38-1.84,3.8-1v-2.85l0-2-2.87-.9v-1.9h2.85c-.1-4.44-.3-5.71-3.8-6.65,2.92-4.36,3.27-.89,3.8-5.7h-3.8c.55-5,3.8-3.11,3.8-5.7l0-2.07-4.16-.88,3.17-10.35H191c-1.47-4.46,2.37.45-1.9-1.9.85-1.6,3.68-5.7,5.7-5.7,4.22,0,6.85,7.31,8.89,11.06,1.3,2.4,5.14,11.92,5.31,14.45l-1.85,1.09H210c.57,2.44,4.75,12.08,4.75,12.36,0,2.18-.32,1.11-1,3.8,3.78,1.37,7.6,9.39,7.6,14.25s2.06,3.29.95,8.55h2.85c0,10.38,5.7,4.68,5.7,14.26,0,2.56-.46,2.62-.82,4l8.42,1.66.43,3,.52-2h14.26c2.9,0,3.83-.92,5.7-1.9a5.28,5.28,0,0,1-1-2.84l-.86-9.51h-2.82l-1-4.82-1.85,1v-2.85c0-4-.73-7.44-3.54-8.47l1.64-6.73H245.2c-.47-5.6-1.9-2-1.9-5.7v-3.8c0-3.28-.7-3.68-1-6.77l-3.48,1.06-.35-5.87-2.58,1.07-1.15-3.75,2.28-.11-2.35-8.62-2.61,1.06-1.13-2.79,3.06,0-1.31-4.87-3.48,2.94L228,230.32l1-1.85-3.81-6.65c1.15-1.71,1.9-1.67,1.9-3.8,0-4.27-2.76-2-4.8-.93l-.9-2.87h1.91v-1.9h-3.8V200h-2.86v1.9h-1.9c-1.16-4.37-2.85-2.4-2.85-5.7v-1.91c0-2.13-.75-2.08-1.9-3.8,1.39-6,3.43-10.24,7.61-13.3v-3.8c5.46-3.66,10.44-18.51,14.62-25.3,4-6.57,11.38-19,15.84-24.15l-2-3.66-8.54-1.07h-5.7C216.67,119.18,218.72,136.51,210,137.24Z"/><path class="cls-2" d="M58,153.39c0,2.13.75,2.08,1.9,3.8-.65,1.16-.95,1-.95,2.85,0,5.09,2.17-2.08,3.8,2.85H59.87c.33,3.9,1,2.12,1,5.7,0,2.44.23,2.3,1,3.85l-1,1.85a22.43,22.43,0,0,1,1.9,9.5v.95c0,7.54,6.65,14.51,6.65,20v3.8c3.25.36,9.52,4.09,10.59,7L97,219.94l-2.16,6.7.72,2.78.86,4,2.4-4v3.8c0,2.57-.46,2.62-.89,4.93l2.58-1.07,1.22,3.92,2.79-1.13c1.09.95,2.85,1.66,2.85,2.85,0,2-1.47-.37-1.86,4.87l3.57-1,2.13,15.05,3.77,1.07V257h.95v4.75l0,1.85-3.64,1.93-1.09-2.82c-.71,3.06-1.61,3.67-2.48,7-1.15,4.44,0,4.27-5.12,4.38V276l-7.36.11-2.14,3.69c-.36-4.33-.53-3.54-3.89-2.81l-3.71-9.55c.52-2.23,1-2.8,1-5.7,0-3.33-4.22-3.8-7.6-3.8s-2.46-.15-4.82,1.13l-2.78-1.13c-3.63,1.74-12.35,1.34-12.36,6.65l.07,3,2.78-1.13V275h-.95v-6.66c-4.43,1.18-1.85.68-3.8,4.75.52,2.23,1,2.81,1,5.7v24.71l1.76,0,1.09-5.67c1.6,1.11,1.9.14,1.9,2.85v1c0,3.86.88,4.92,3.8,5.7v-2.78l23.75-2h6.66c24.8,0,35.21-9.27,40-29.55l2,1-1.07-3.77c1.1-2.29,1-1.24.95-4.75l.27-4.76-1.22-29.45c-.28-6.07-4.3-12.67-6.6-17.09l.9-2.87c-5-.41-10.1-6.16-10.72-10.61l-1.64,2.06v-1.9h-3.8c-1.91-2.84-4.81-6.65-9.5-6.65H93.14l0-2.12-4.71,1.16c-1.69-2.51-2.39-2.72-2.94-6.64l-.86-9.52V168.6c0-5.16,2.25-5.42,1-8.55,3.33-6.29,5-11.4,15.2-11.41h1.9c9.45,0,10.89,10.75,14.26,17.1H135c3.41,0,4.07-6,3.74-9.5L137.8,141v-7.6c0-3.59-2.32-6.34-3.8-8.56h2.85c-.24-2.83-.68-4.75-3.8-4.75l-2.85.23-4.8-.32-1.9,1.11-1.86-.79-4.75-.24c-5.11,2.7-6.51.34-6.65,6.65-5.18,0-9.09-.81-9.53-5.46l-7.57-1.2c-9,4.34-15,4.33-22.12,12.09C67.79,135.75,58,148.18,58,153.39Z"/><path class="cls-2" d="M615.92,120.08c-3.17,5.89-4.8,17.36-5.75,25.72l-4.78,42.76v3.8c0,5.28-3.94,14.47-2.82,17.15l-6.2,4.43-.69-.73,1.16-3.75c-2.6-3-6.65-6-6.65-11.4v-5.7c0-3.44-1.62-1-1.57-4.78L586.68,159l-2.2-16.11v-5.7c0-8-1.61-18.06-9.5-18.06H560.72a3.65,3.65,0,0,0-3.8,3.8c0,24.8,7.73,53.27,11.26,77l2,13.28V218c0,5.88,2.12,15.37,2.9,21.81s4.71,14.42,4.71,20c0,8.68,3.9,45.62,9.5,45.62h16.16c4.79,0,5-1.58,5.4-5.75L613,276l-.39-1,3.25-25.61c1.32-10.35,2-18.43,4-28.32,1-4.71,5.51-24.55,5.51-27.75v-1.9c0-11.93,3.26-24.38,4.75-35.17,1.27-9.17,7.61-26.51,7.61-32.31v-2.85h-1.9v-1.9H619.64c-2.56,0-2.62-.45-4.83-.9Z"/><path class="cls-2" d="M730.83,321.6a3.65,3.65,0,0,0,3.8,3.8h3.8V317.8h-7.6Z"/><path class="cls-2" d="M716.58,322.56c0,2.19.66,2.85,2.85,2.85h1.9c2.19,0,2.85-.66,2.86-2.85V317.8h-7.6Z"/><path class="cls-2" d="M309.82,322.56c0,2.19.67,2.85,2.85,2.85h3.8V317.8h-6.65Z"/><path class="cls-2" d="M294.62,325.4h4.75c2.19,0,2.85-.66,2.85-2.85V317.8h-7.6Z"/><path class="cls-1" d="M66.34,395.68l4.94.05c2.67,0,1.76-.41,2.64-1.57l-2.64-2.23h1.84l1.06-9.58,1.85,1V335.86h6.66v59.87c0,3-1.74,5.5-2.85,7.6H61.78c-1.11-2.1-2.85-4.64-2.85-7.6V391c0-2.19.66-2.85,2.85-2.85h1.9c2.55,0,2.81,1.37,3.83,2.86l-1.18,4.69Zm222.58-40.82,1.9-.63,2.85-.32v7.6l.59,0,3.32-25.37,3.7-2.14c1.16.65,1,1,2.85,1l5.38,0,2.22,15.16c1.2,7.86,4.75,19.88,4.75,26.61v2.85c0,4.89,7.05,22.81,1,22.81h-4.78l-2.82-6.66h-8.55c-3.34,0-3.53,4.37-3.8,7.6h-8.55c.09-4.39.94-3.19.95-6.66l-.43-2,4.05-31.43L291,366.22l-1.09-1.85c.65-1.16.95-1,.95-2.85,0-2.56.45-2.62,1-4.75h-2.85v-1.9Zm-153-16.16c0-1.56.57-2.85,1.9-2.85,3.63,0,.34-.29,2.8.7l4.79-.7c.13,5.69,1.9,4.15,1.91,8.56v1.9c0,3.95.59,5.95,2.61,7.54l5-18h9.5c0,4.52-7.94,32.85-9.58,36.16l1,1.85c-.65,1.16-.94,1-.95,2.86,0,3.27.7,3.68.91,6.49l3.84-.79c-.29,1.12-.95,2.59-.95,2.85,0,1.84,1.29,3.09,1.88,5.65l-3.83,2-2.06-1,1.27,5.72-3,5.44-4.65,1-8-4,4.08-2.48v-4.75h1.9c-.53-.76-1.9-2.35-1.91-2.85,0-1.86,1.77.21,1.9-5.7l-3-.19,2-1.69-.9-2.87h1.9v-2.85c0-10.41-10.45-30.61-10.46-38Zm328.83,3.8h1.78l-.2,3.81.32,2.85c0,.09-.93,3.49-.55,3.83l-.2,6,3.6-2.23c.15-6.58,7.89-20.91,14.25-20.91h1.9c3.64,0,.34-.29,2.85,1-1.21,5.22-6,10.29-8.5,15.19l.9,2.87c-1.64-.68-2.85-1.33-2.85,1.9v3.8h-2.85v1.9H478v5.71h2.85V371c0,4,1.16,3.42,2.34,5.26,2.42,3.76-.4,3.67,3.36,5.2v2.85c0,3.52.93,4.3,2.85,5.7-1.94,4.69,2.85,3.57,2.86,7.6v4.75h-5.7c-2.56,0-2.62-.45-4.75-.95v-2.86h-1.9c-.2-8.84-7.94-19.17-8.56-26.61-2.84.23-4.75.68-4.75,3.8l.12.94.2,3.81-.31,2.85c0,.07.95,3.73.63,3.8l.32,2.85a28.14,28.14,0,0,0-.7,3.75l.7,4.8,2,.43-2,.5.86,2.47-3.77.4H460c-2.19,0-2.85-.66-2.85-2.85l-.12-1.89-.2-3.81v-5.7l-.08-2.88.16-3.77.24-4.75v-8.55c0-2.68-.41-1.76-1.9-2.85.66-1.16.95-1,.95-2.85l-.12-11.4-.29-3.84.4-3.77v-5.7c2.55-.61,1.79-.95,3.8-.95,3.27,0,3.68.7,6.79,1.38l-2,.52v3.8Zm-63.67-1.9.95,9.51c.28,2.14-.91,2.85-2.85,2.85h-5.7c-.63-2.71-1.47-5.7-4.75-5.7-2.9,0-3.84.91-5.64,1.9l-.06,6.65v6.66h6.65c2.68,0,1.76.41,2.85,1.9h3.8c.48,5.76,5.7,6.14,5.7,12.36v12.35c0,7-5.67,12.36-13.3,12.36H384.9c-5.83,0-12.24,3.8-12.35,3.8-1.73,0-1.53-1.44-1.92-2.79l2.87.89c-.65-1.16-.95-1-.95-2.85a5.62,5.62,0,0,0-1-3.8,6,6,0,0,0,.95-3.8c0-4.73,1.8-7.6,6.65-7.61h1.9c3.46,0,2.54,2.92,2.85,6.65,5.21,0,7.6-.46,7.6-5.7v-.95c0-3.72-1.44-.11-1.9-5.7-2-.54-3.8-1.65-3.8-3.8s.32-1.1.93-3.72l-6.35-1.4-4.09-2.48c-.13-5.69-1.9-4.15-1.9-8.55,0-3.3-1.24-7.6-1.9-10.46,1.3-5.58,6.1-12.35,12.36-12.35h3.8v1.9h2.85v-1.9h7.6c4.4,0,1.61,1.57,1.9,3.8Zm149.13-2.9c3.09,2.26,3.88,7.29,3.88,12.41,0,3.64-.29.35.95,2.85,2.88-2.11,3.8-7.47,3.85-12.44l2,1-1.07-2.76.9-2.87h9.5v5.7c0,6-9.5,24.44-9.5,35.17,0,3.52.93,4.29,2.85,5.7v-3.8c1.89,1.38,1.9,2.79,1.9,5.7v1.9c0,2.44.23,2.3,1.24,4.14l-5.22,3.53.87,2.73-.88,4.61-1.71,2.09h-1.9c-3.58,0-1.8.63-5.7,1-1.11-2.75-.81-1.93-4.75-2.85.39-4.69.81-2.55,3.75-5.68l-.41-2.46,2.6-3.06-.92.24-2.17-4.25h1.9v-1.9l-3-.19,2.17-1.76-1-1.9,2.87-.89c-.5-2.13-.95-2.19-1-4.76v-1c0-8.63-10.45-29.33-10.46-35.16,0-3.82,5.48-2.76,9.59-2.8l-1.11,1.8ZM241.39,355.82c0,4.53-.95,3-.94,6.65,0,4-1.24,5.79-1.82,10.47l-3.88,29.44h-6.66c-4.7,0-4-9.84-4.56-14.29l-3.9-24.69-3.89-27.54h8.56c1.24,2.34,1.59,2.37,1.74,5.72l1.11,14.24v2.85c0,4.44,1,1.27,1,5.7,0,3.09.82.72,1.9,4.75l1.73,0,2.07-13.28-.19-2.89,1.9-12.37,1.15-4.71h8.55V334h1.9v7.6h-.95v-4.75h-.95c0,5.59-3.8,11.78-3.8,19Zm380.23-20.94,8.47,0c3.64,0,.35.29,2.75-.43l3.13.5-1.09,2.74,2.81,1.94-.06,2.85-.91,7.56,2.84-.92-1.87,4.77h3.8l0,2.13-5.89-.43,5,1.19-1.94,2.82c-5.14-.12-4.64.15-3.8-3.8-1.6,1.11-1.9.13-1.9,2.85l0,25.61,2.87-.9v3.8h-2.85l.43,3,.52-2,1.76.05,1.14,1.88-1.95,3.77H651a5.57,5.57,0,0,1,3.81,1l3.56-1.85,2.33,6.78-2.17,1.76,1,2-11.39-.84-5.6.07-7.7,1.54v-1.9l-2.8,0,.9,2.87c-2.15-.84-1.27-.72-2.85,1v-1.9l-3.56-.2-3.09-2.65v-1.9h1.9v-4.75h-1.9c.33-3.9,1-2.12.71-5.7l.24-4.75-.12-7.59-.2-3.81.26-3-5.64,2c1.18-4.43.68-1.85,4.92-3.87l-1.13-2.78h1.9v-9.51a22.66,22.66,0,0,0-1.49-7.63l-.41-4.72,2.26-.14-3.13-8.45Zm98.65-3.06,1.06,2.86,4.75.24h4.75c.28,3.36,1.9,7.49,1.9,10.46,0,8.71,4.75,19.05,4.75,27.56v1.9c0,7.15,3.8,15,3.8,20.91v6.65h-7.6c-.27-3.26-1.38-6.65-4.75-6.65h-5.7c-3.4,0-3.72,4.17-3.8,7.61l-8.75,0L711.83,390v-1c0-5.09,1.9-6.55,1.9-12.35,0-4.53.95-3,1-6.65,0-3.28.7-3.68.77-6.78l-2.53,2.93-1.1-1.85c.65-1.16,1-1,1-2.85,0-2.57.45-2.62,1-4.75h-2.85l0-1.76,1.85-.78,2.85-.32v5.7l.57-.07,2.28-13.24v-2.85c0-4.43,1-1.27,1-5.7,0-3.63-.29-.35,1-3l-4-1.2,3.88-1.73Zm3.91-9.26c0,2.19-.66,2.85-2.86,2.85h-1.9c-2.19,0-2.85-.66-2.85-2.85V317.8h7.6v4.76ZM316.47,317.8v7.61h-3.8c-2.19,0-2.85-.66-2.85-2.85V317.8Zm-21.86,0h7.6v4.76c0,2.19-.66,2.85-2.85,2.85h-4.75v-7.6Zm443.82,7.6h-3.8a3.65,3.65,0,0,1-3.8-3.8v-3.8h7.6v7.61Zm-379.2-70.33h5.7c-.9,2.31-1.81,1.08.95,1.9-1.24,2.5-.95-.78-1,2.85v2.85l-3.84-.78-1.81.87c-3.36-1.83-4.42-1.18-4.81-5.79h4.76v-1.9ZM663.33,118l80.8,1.38V142c0,2.71-.3,1.74-1.9,2.85l-.52-2-.43,2-18-1.18-36.13.22c-6.51,0-7.6,5.9-7.61,12.36V180l.83,6.67-.95,3.75,1.27,3.78,19.66,3.43,7.69-.52,8.54-1.06c.51,2.25,1,2.3,1,4.87v15.21c0,3.33-4.22,3.8-7.6,3.8H683.32c-2.47,0-3.53,1.53-3.8,3.8l-1.21,10.42.26,39.95h.95v-2.85l4.7,1.15c-1,3.62-.21,2.56-4.7,2.66.44,5.27,6,5.7,11.4,5.7h52.28a3.65,3.65,0,0,1,3.8,3.8V302.6c0,2.19-.66,2.85-2.85,2.85h-57l-4.76-.24-25.65.24c-3.09,0-.71-.82-4.75-1.9V300.7l-1.09,1.85c-1.34-1-1.76-.13-1.76-2.8v-3.8c0-3.28.7-3.68,1-6.65l2.87-.9,0-2V275H651v-1.9h1.9v-3.8H651V214.21c0-3.83.2-5.59,2.85-6.65L655,197.14l-.22-12.38c0-6.65-3.13-2.23-3.8-9.51L649.78,162l.27-25.68.82-10.47c.51-3.61.83-3.55,1.11-6.45L663.33,118ZM503.74,270.26a5.79,5.79,0,0,0,.9-3.78V256l-2.21-90.27.32-16.17c-4.5-1.2-4.76-5.28-7.6-8.55,1.24-2.51,1,.78,1-2.85v-2.85H498c.32,3.82,1.49,4.83,4.75,5.7-1.94-2.89-3.28-4.71-4.38-8.92-2.26-8.6-5.12-1.66-5.12-7.23,0-1.28,1.06-1.43,1.9-1.9v3.8c6.23-.52,4.75-7.6,12.36-7.6h26.61a5.4,5.4,0,0,1,4.75,4.75v9.5c0,7.12-8.55,8.89-8.55,13.31V266.48c0,7.74,11.41,17.21,11.41,24.71V294c0,4.09-1.11,5.15-1.9,8.55,3.37-1.39,3.22,0,4.75,2.85-1.72,1.15-1.67,1.9-3.8,1.9H505.6l-5.66-.52,0-4.24c0-2.56.45-2.62,1-4.75l-3.6,2.23c-.7-2.46-1.15-2.51-1.16-5.08v-4.75c0-4.55.28-7.23,4.75-7.6v2.85c1.35-1,8.55-8.75,8.55-10.45V260.78h-1.9l1.07-3.76-2,0v6.65a6,6,0,0,0,.95,3.8l-1.16,5.67-1.69,0-.91-2.87ZM58,153.39c0-5.22,9.82-17.65,13-21.17,7.08-7.76,13.08-7.75,22.12-12.09l7.57,1.2c.44,4.65,4.35,5.46,9.53,5.46.15-6.31,1.55-3.95,6.65-6.65l4.75.24,1.86.79,1.9-1.11,4.8.32,2.85-.23c3.12,0,3.56,1.91,3.8,4.75H134c1.48,2.22,3.8,5,3.8,8.56V141l.89,15.21c.33,3.5-.34,9.5-3.74,9.5H116.9c-3.36-6.35-4.81-17.1-14.26-17.1h-1.9c-10.15,0-11.87,5.12-15.2,11.41,1.29,3.13-.95,3.39-1,8.55v8.55l.86,9.52c.55,3.92,1.25,4.12,2.94,6.64l4.71-1.16,0,2.12h14.26c4.69,0,7.6,3.81,9.5,6.65h3.8v1.9l1.64-2.06c.62,4.45,5.75,10.2,10.72,10.61l-.9,2.87c2.3,4.42,6.32,11,6.6,17.09L140,260.77l-.27,4.76c0,3.52.15,2.47-.95,4.75l1.07,3.77-2-1c-4.76,20.27-15.16,29.54-40,29.55H91.23l-23.75,2v2.78c-2.92-.78-3.8-1.85-3.8-5.7v-1c0-2.71-.3-1.74-1.9-2.85l-1.09,5.67-1.76,0V278.84c0-2.89-.44-3.48-1-5.7,2-4.07-.62-3.57,3.8-4.75V275h.95v-8.55l-2.78,1.13-.07-3c0-5.31,8.72-4.91,12.36-6.65L75,259.06c2.36-1.27,1.31-1.13,4.82-1.13s7.6.47,7.6,3.8c0,2.9-.43,3.47-1,5.7L90.2,277c3.36-.73,3.53-1.52,3.89,2.81l2.14-3.69,7.36-.11v-1.9c5.15-.11,4,.05,5.12-4.38.87-3.35,1.77-4,2.48-7l1.09,2.82,3.64-1.93,0-1.85V257H115v5.7l-3.77-1.07-2.13-15.05-3.57,1c.39-5.23,1.86-2.9,1.86-4.87,0-1.19-1.76-1.9-2.85-2.85L101.76,241l-1.22-3.92L98,238.15c.43-2.31.88-2.36.89-4.93v-3.8l-2.4,4-.86-4-.72-2.78,2.16-6.7L80,215.54c-1.08-2.94-7.34-6.67-10.59-7v-3.8c0-5.45-6.66-12.42-6.65-20v-.95a22.43,22.43,0,0,0-1.9-9.5l1-1.85c-.8-1.56-1-1.41-1-3.85,0-3.58-.62-1.8-1-5.7h2.85c-1.63-4.93-3.8,2.24-3.8-2.85,0-1.84.3-1.69.95-2.85-1.15-1.72-1.9-1.67-1.9-3.8ZM210,137.24c8.68-.72,6.63-18.06,21.86-18.06h5.7l8.54,1.07,2,3.66c-4.46,5.11-11.81,17.58-15.84,24.15-4.18,6.79-9.15,21.64-14.62,25.3v3.8c-4.18,3.06-6.21,7.33-7.61,13.3,1.15,1.72,1.9,1.67,1.9,3.8v1.91c0,3.3,1.69,1.33,2.85,5.7h1.9V200h2.86v12.36h3.8v1.9h-1.91l.9,2.87c2-1.07,4.8-3.34,4.8.93,0,2.13-.75,2.09-1.9,3.8l3.81,6.65-1,1.85,1.21,2.83,3.48-2.94,1.31,4.87-3.06,0,1.13,2.79,2.61-1.06,2.35,8.62-2.28.11,1.15,3.75,2.58-1.07.35,5.87,3.48-1.06c.29,3.09,1,3.49,1,6.77v3.8c0,3.72,1.44.11,1.9,5.7h4.75l-1.64,6.73c2.82,1,3.55,4.42,3.54,8.47v2.85l1.85-1,1,4.82h2.82l.86,9.51a5.28,5.28,0,0,0,1,2.84c-1.87,1-2.8,1.9-5.7,1.9H239.49l-.52,2-.43-3-8.42-1.66c.36-1.42.82-1.47.82-4,0-9.57-5.7-3.88-5.7-14.26h-2.85c1.11-5.26-.95-3.75-.95-8.55s-3.82-12.89-7.6-14.25c.63-2.69,1-1.63,1-3.8,0-.27-4.18-9.91-4.75-12.36h-2.85l1.85-1.09c-.17-2.53-4-12.06-5.31-14.45-2-3.75-4.67-11.07-8.89-11.06-2,0-4.85,4.1-5.7,5.7,4.26,2.35.42-2.56,1.9,1.9h-2.85L185,236.92l4.16.88,0,2.07c0,2.6-3.25.67-3.8,5.7h3.8c-.53,4.82-.89,1.34-3.8,5.7,3.51.94,3.7,2.21,3.8,6.65h-2.85v1.9l2.87.9,0,2v2.85c-4.18-.89-1.69-2-3.8,1l3.77,1.07,0,4.64-1.85-1L186.16,275l4.94,1.79-1.2,2.93-2.69-.83-1,3.71,3,.93,0,2v2.85c-2.68-1.11-1-1.56-2.85.95h2.85V295l-1.85-1-.05,3.88h1.9v4.75L188,300.74c-3.63,2.71-.8,4.23-6.51,4.71l1.13,2.78c-6.8-1.7.8-2.05-5.88-2.79l1.94,2.81-5.74,0c-1.84,0-1.7.3-2.86,1,1-3.66.26-2.85,4.76-2.85v-1l-5.75.63c-2.05-.68-4.25-.51-5.68-1.55-3-2.19.55-2.26-3.77-3.83v-1.9h1.9l-2.62-8.64,2.62.09-1.86-1.09,0-6.51h1.9c-.12-5.43-.48-3.11-2.85-6.65h2.85v-1.9h-1.9l1.86-1.09-2-2.59c.39-3.09,1.09-3.49,1.09-6.77,0-1.29-1-.53-1.9-3.8h1.9v-4.75h-1.9v-2.85h2.85l-.91-5.71c-2.36.91-1.13,1.82-1.95-.95h1.9V221.82a6,6,0,0,0-.95-3.8c.62-1.29,1.09-1.6.95-3.8l-1.22-20.89c.16-1.81.6-1.77,1.22-2.87a5.6,5.6,0,0,1-.95-3.8v-19c0-3.66-.53-3.91-2.86-4.75,1.15-1.71,1.9-1.67,1.9-3.8,0-1.61-1.26-3.55-1.9-4.75l1.13-2.78-1.24-3.83c.63-2.26,1.06-2.85,1.07-5.74,0-1.83-.3-1.69-1-2.85,1.15-1.71,1.9-1.67,1.9-3.8v-2.85h-1.9c.5-2.13,1-2.18,1-4.75v-1c0-3.07,3.45-4.75,6.65-4.75h9.5c3.28,0,3.68.7,6.65,1v6.65l2.78,1.13c-6,5.1-2.78,6.57-2.78,15h1.9v-1.9c2.64.87,2.09-.76,1,1.9h2.85l1.15,4.71-3.07-.85-2.77,1.08-.07,3.62h4.75v2.85h-4.75l-1.17,10.43,3.07,0-.12,3.81h-1.78l3.06,11.34,2.67,1c2.36-1.55,9.48-9.24,9.48-12.31,0-7.58,10.75-26.12,14.26-31.36l-.95-2.85Zm404.78-19c2.21.45,2.27.9,4.83.9H635.8v1.9h1.9v2.85c0,5.8-6.34,23.13-7.61,32.31-1.48,10.79-4.75,23.23-4.75,35.17v1.9c0,3.2-4.56,23-5.51,27.75-2,9.89-2.67,18-4,28.32L612.59,275l.39,1-4.11,23.71c-.4,4.17-.61,5.75-5.4,5.75H587.33c-5.6,0-9.5-36.94-9.5-45.62,0-5.58-3.94-13.63-4.71-20s-2.89-15.93-2.9-21.81v-4.75l-2-13.28c-3.53-23.73-11.26-52.2-11.26-77a3.65,3.65,0,0,1,3.8-3.8H575c7.89,0,9.5,10.07,9.5,18.06v5.7l2.2,16.11,1.93,28.53c-.05,3.74,1.57,1.33,1.57,4.78v5.7c0,5.41,4.05,8.41,6.65,11.4l-1.16,3.75.69.73,6.2-4.43c-1.12-2.68,2.82-11.87,2.82-17.15v-3.8l4.78-42.76c.95-8.36,2.58-19.83,5.75-25.72l-1.11-1.8Zm-287-.18,3.68,3.14-.75-3,3.75,0,1.13,2.78,2.67.07c2.9,0,3.83.92,5.7,1.9v4.75c0,17.48-15.21,37.77-15.2,53.22,0,2.71-.3,1.74-1.9,2.85l-10.25,39.71,1-.13,2.9,1.83-4.06.41V238c0,2.38,4.88,7.36,4.75,9.51l-.49,4.72c2.21-1.12,2.16-1.87,4.3-1.87h1.9c1.56,0,2.85.57,2.85,1.9,0,1.95-2,1.75-3.8,1.9l1.85,1.09,0,5.56-2,.53,4.94,1.12-.94,3.13,3.15,4.3.6,2.34-11.22,6.92c-.62-1.89-1.29-4.07-3-4.07-1.33,0-1.9,1.3-1.9,2.85v10.45c0,2.71.3,1.74,1.9,2.85v-2.85h1.9v3.8l-2.78,1.13c-.07,9.89-4.42,14.12-12.42,16v-1.9l-2.87.9-2.77-1.08,1.06,3-4.94-1.8-2.86.86,0-2.8h-1.9v-1.9l2-.52-3.95-.43,4.64-2.23-.72-6.34c-1,.61-2.4,1.92-3,1.92a2.23,2.23,0,0,1-1.9-1.9c0-2.92,5.7-.69,5.7-5.7v-5.7h-1.9v-1.9h1.9v-3.8h-1.9l1.85-1.09,0-1.76-2-.52,2-.43v-4.75l-4.82,1.75.07-3.66h2.85c.47-5.6,1.9-2,1.9-5.7v-9.5l-4.39,3.27-.36-2.32-3.78,2,7.12-9.92.45-1.53.7-8.52c0-1.54.25-1.4.25-3.84v-2.85c0-6.67-2.4-8.9-2.85-14.26h-2.85l1.07-3.77c-3.07-12.69-7-27-11.17-39.36-2.34-7-4.05-12.08-6.42-19.24-1-3.15-2.45-5.92-3.28-9.08-.89-3.44-1-7.18-4-8.39l1.13-2.79c-1.27-2.35-1.13-1.3-1.13-4.82v-5.7c1.87-1,2.8-1.9,5.7-1.9h2.85V122h1.9v-1.9l4.71,1.17,0-2.11c13.34,3.11,17.1,20.81,17.11,37.06v1c0,4.81,3.39,13.31,7.61,13.31H307c2.63,0,2.28-.74,2.85-2.85l-4.71,1.17c.16-9.57,7.56-25.06,7.56-33.48,0-3.1.49-3.14,1.9-4.75v3.8h1.9l1.07-3.76-3.86-1.2c.26-3.51-.63-2.68,2.8-3.6l1-5.57,10.4-2.16Zm150.64-3.77-3.43-.82,1.07,3.76a6,6,0,0,0-1,3.8c0,3.63-.3.34,1,2.85l-2.2.12,4.07,8.42-1.87,4.76,2.12,0L477,142l.84,1.66-1.31,2.12-.4,3.77c.84.47,1.9.62,1.9,1.9,0,3.24-1.21,2.58-2.49,2l-2.26,5.56c1.45,3,1.52,5.24,5.7,5.7l.21,3.18,2.6-2.07,3.6.85-1.63-7.53,5.67-1.09v-2.85l-5.89-.41,3.58-1.52.4-3.77h-2.85v-4.75h-1.9c1.67-1.58,1.79-.69,1-3l3.62,1,1.09-1.85.05,2.93,1.85-1v1.9h4.75c-2.19-4.13-7.6-9.28-7.6-13.31v-.95c0-2.36-2.38-3.58-3.8-5.7,2.13-.5,2.18-1,4.75-1h2.85c-.87-3.29-1.65-3.46-5.7-3.8.45-1.95,1.81-5.71,3.8-5.7,1.74,0,1.11,1.9,2.85,1.9,1.39,0,1.39-1.17,1.9-1.9-4.5-1.05-3.42-1.84-7.6-1-.87-3.27-1.88-4.44-5.74-4.76l1-4.74-5.54,0,2.19,10.39ZM371.6,66l-4,3.84L366.84,66h-1.9v17.1c0,2.34,6.65,8.07,6.65,14.26l.32,2.86-2.22,133v29.46c0,4.15-1.9,3.45-1.9,7.61,0,8.37-7.61,17.6-7.6,28.51,0,2.89.91,3.83,1.9,5.7h57c8.83,0,13.2-3.32,19.21-3.41l-9.46,4.5-2.15,4.62c2.61.61,3.86,1.9,5.7,1.9h1.9a11.56,11.56,0,0,1,10.23-6.53l3.08,6.52h.95l.19-3.61,1.71-2.09h-1.9v-1.9c4.52-.1,6.29-.33,6.72-4.57l3-1.2L457,295.58l7.7-1.54v-3.8c0-4.63,3.2-1.85,4.71-5.54l3.84.79.37-3.52,2.49-4.09L474,277.7l2.23-1.83-2-2.56,2.9-1.15-1.07-8.54c-.52-3.46,1.91-3.22,1.9-7.61v-4.75c0-3.24-1.21-2.58-2.9-1.88l-.9-2.87c-2.12.57-2.85.22-2.85,2.86v1.9c0,4.15,1.9,3.45,1.9,7.6v3.8h-2.85c.87,3.27,1.9,2.51,1.9,3.8,0,2-9.71,13-11.41,14.26.82-3.53,3.8-10,5.35-14.61,2.22-6.6,2.25-9.24,3.33-16.73l1.78-17.12V177.15c7.3.61,5.12,8.19,9.51,11.41v-3.8h3.8c-.71,1.06-2.85,3.2-2.85,3.8s1.31,2,1.9,2.85l-2.12,0,1.35,4.78L481.84,199c.8,1.67,1,4.75,2.85,4.75.08,0,4.08-2.49,4.71-2.68l3.84.78V200l2.6.06-1.65-8.61c-3.56.39-2.88,1.75-8,2.49l3.32-4.47,1.85,1v-1.9h1.9V185.7c0-4.58-1.81-5.09-4.49-6.05l-4,1.32.9-2.87c-3.56-2.39-5.18-7.17-10.57-7.57l1.05,3.8-4.75-1V112.53c0-15.74-11-29.61-20.2-36.82-8.78-6.87-28.75-12.6-44.43-12.6h-39c.92,3.43.09,2.54,3.8,2.85ZM306,88.76H58c-22.55,0-39,18.82-39,42.77V388.13c0,24,17.54,42.77,41.81,42.77H759.34c24.76,0,43.72-17.2,43.72-42.77l.26-252.82-1.21-10.43c-2-19.65-17.05-36.11-39-36.11h-248c-3.69-15.83-25.8-39.75-38.39-48.1-16.78-11.13-37.87-21.28-65.2-21.28h-4.75C383,19.39,358.22,31.46,344,41.23,326.27,53.45,316.34,69.25,306,88.76Z"/><path class="cls-2" d="M241.39,355.82c0-7.23,3.81-13.42,3.8-19h.95v4.75h.95V334h-1.9v1.9h-8.55l-1.15,4.71-1.9,12.37.19,2.89-2.07,13.28-1.73,0c-1.08-4-1.9-1.66-1.9-4.75,0-4.43-1-1.27-1-5.7v-2.85L226,341.58c-.15-3.35-.5-3.37-1.74-5.72h-8.56l3.89,27.54,3.9,24.69c.57,4.45-.14,14.29,4.56,14.29h6.66l3.88-29.44c.58-4.68,1.82-6.49,1.82-10.47C240.44,358.8,241.4,360.35,241.39,355.82Z"/><path class="cls-2" d="M401.06,340.61c-.3-2.24,2.5-3.8-1.9-3.8h-7.6v1.9H388.7v-1.9h-3.8c-6.26,0-11.06,6.77-12.36,12.35.67,2.86,1.9,7.16,1.9,10.46,0,4.4,1.77,2.86,1.9,8.55l4.09,2.48,6.35,1.4c-.61,2.62-.93,1.54-.93,3.72s1.78,3.26,3.8,3.8c.47,5.6,1.9,2,1.9,5.7v.95c0,5.24-2.39,5.7-7.6,5.7-.31-3.73.61-6.65-2.85-6.65h-1.9c-4.85,0-6.65,2.87-6.65,7.61a6,6,0,0,1-.95,3.8,5.62,5.62,0,0,1,1,3.8c0,1.84.3,1.69.95,2.85l-2.87-.89c.39,1.35.19,2.8,1.92,2.79.11,0,6.52-3.8,12.35-3.8h3.81c7.63,0,13.31-5.4,13.3-12.36V376.73c0-6.22-5.23-6.6-5.7-12.36h-3.8c-1.09-1.49-.18-1.9-2.85-1.9H383v-6.66l.06-6.65c1.81-1,2.74-1.9,5.64-1.9,3.28,0,4.12,3,4.75,5.7h5.7c1.94,0,3.13-.7,2.85-2.85Z"/><path class="cls-2" d="M725.13,371c0,3.66.53,3.91,2.85,4.75-.65-1.16-.95-1-1-2.85v-2.85h1.9c.25,3,.95,3.38.95,6.66v2.85c0,4,2.89,7.6-1.9,7.6h-3.8c-2.19,0-2.85-.66-2.85-2.85,0-2.44,1.47-8.52,1.69-11.44l1.16-8.52H727v1.9h-1.9V371Zm.95-36.11-4.75-.24-1.06-2.86-3.88,1.73,4,1.2c-1.28,2.67-1-.62-1,3,0,4.43-1,1.27-1,5.7v2.85l-2.28,13.24-.57.07v-5.7l-2.85.32-1.85.78,0,1.76h2.85c-.5,2.13-1,2.18-1,4.75,0,1.83-.3,1.69-1,2.85l1.1,1.85,2.53-2.93c-.07,3.1-.77,3.5-.77,6.78,0,3.67-1,2.12-1,6.65,0,5.81-1.9,7.26-1.9,12.35v1l-1.14,13.28,8.75,0c.08-3.43.4-7.6,3.8-7.61h5.7c3.37,0,4.48,3.39,4.75,6.65h7.6v-6.65c0-5.95-3.8-13.76-3.8-20.91v-1.9c0-8.51-4.75-18.85-4.75-27.56,0-3-1.62-7.09-1.9-10.46Z"/><path class="cls-1" d="M301.06,372.89l-.74,12.39c4.19-.89,1.69-2,3.8.95h-2.85v1H306c2.19,0,2.85-.66,2.85-2.85,0-2.59-.5-2.68-.74-5.74L307,370.07h-1.9v4.75c-1.6-1.11-1.9-.13-1.9-2.85l0-6.51,1.85-1.09-2.74,0Z"/><path class="cls-2" d="M302.33,364.39l2.74,0-1.85,1.09,0,6.51c0,2.72.3,1.74,1.9,2.85v-4.75H307l1.16,8.52c.24,3.05.74,3.15.74,5.74,0,2.19-.66,2.85-2.85,2.85h-4.75v-1h2.85c-2.11-2.93.39-1.84-3.8-.95l.74-12.39,1.28-8.5Zm-13.41-7.62h2.85c-.5,2.13-1,2.19-1,4.75,0,1.84-.3,1.69-.95,2.85l1.09,1.85,2.54-2.93-4.05,31.43.43,2c0,3.47-.85,2.27-.95,6.66h8.55c.27-3.23.46-7.6,3.8-7.6h8.55l2.82,6.66h4.78c6.1,0-1-17.92-1-22.81v-2.85c0-6.72-3.55-18.74-4.75-26.61L309.5,335l-5.38,0c-1.84,0-1.69-.3-2.85-1l-3.7,2.14-3.32,25.37-.59,0v-7.6l-2.85.32-1.9.63Z"/><path class="cls-1" d="M725.13,366.27H727v-1.9h-2.85L723,372.89c-.22,2.92-1.69,9-1.69,11.44,0,2.19.66,2.84,2.85,2.85H728c4.79,0,1.9-3.64,1.9-7.6v-2.85c0-3.28-.7-3.68-.95-6.66H727v2.85c0,1.84.3,1.69,1,2.85-2.32-.84-2.85-1.09-2.85-4.75Z"/><path class="cls-2" d="M67.51,391c-1-1.49-1.29-2.86-3.83-2.86h-1.9c-2.19,0-2.85.66-2.85,2.85v4.75c0,3,1.74,5.5,2.85,7.6H79.83c1.11-2.1,2.85-4.64,2.85-7.6V335.86H76v47.52l-1.85-1-1.06,9.58H71.28l2.64,2.23c-.88,1.16,0,1.57-2.64,1.57l-4.94-.05Z"/><path class="cls-2" d="M140.61,336.56c-2.46-1,.83-.7-2.8-.7-1.33,0-1.9,1.3-1.9,2.85,0,7.41,10.46,27.61,10.46,38v2.85h-1.9l.9,2.87-2,1.69,3,.19c-.13,5.91-1.9,3.84-1.9,5.7,0,.5,1.37,2.09,1.91,2.85h-1.9v4.75l-4.08,2.48,8,4,4.65-1,3-5.44L154.7,392l2.06,1,3.83-2c-.58-2.56-1.88-3.81-1.88-5.65,0-.26.65-1.74.95-2.85l-3.84.79c-.2-2.81-.91-3.21-.91-6.49,0-1.84.3-1.69.95-2.86l-1-1.85c1.64-3.32,9.58-31.64,9.58-36.16h-9.5l-5,18c-2-1.6-2.61-3.59-2.61-7.54v-1.9c0-4.41-1.78-2.86-1.91-8.56Z"/><path class="cls-2" d="M464.73,402.38l3.77-.4-.86-2.47,2-.5-2-.43-.7-4.8a28.14,28.14,0,0,1,.7-3.75l-.32-2.85c.32-.07-.63-3.73-.63-3.8l.31-2.85-.2-3.81-.12-.94c0-3.12,1.92-3.57,4.75-3.8.62,7.44,8.36,17.76,8.56,26.61h1.9v2.86c2.13.49,2.18.95,4.75.95h5.7v-4.75c0-4-4.79-2.91-2.86-7.6-1.92-1.41-2.85-2.18-2.85-5.7v-2.85c-3.76-1.52-.94-1.43-3.36-5.2-1.18-1.84-2.34-1.28-2.34-5.26v-2.85H478v-5.71h-2.85v-1.9H478v-3.8c0-3.24,1.21-2.58,2.85-1.9L480,352c2.55-4.9,7.29-10,8.5-15.19-2.51-1.24.79-.95-2.85-1h-1.9c-6.36,0-14.1,14.33-14.25,20.91l-3.6,2.23.2-6c-.38-.34.55-3.74.55-3.83l-.32-2.85.2-3.81h-1.78v-3.8l2-.52c-3.12-.68-3.52-1.38-6.79-1.38-2,0-1.26.34-3.8.95v5.7l-.4,3.77.29,3.84.12,11.4c0,1.83-.29,1.69-.95,2.85,1.49,1.09,1.9.17,1.9,2.85v8.55l-.24,4.75-.16,3.77.08,2.88v5.7l.2,3.81.12,1.89c0,2.19.66,2.85,2.85,2.85Z"/><path class="cls-2" d="M637.7,353.92l1.87-4.77-2.84.92.91-7.56.06-2.85-2.81-1.94L636,335l-3.13-.5c-2.4.72.88.43-2.75.43l-8.47,0,3.13,8.45-2.26.14.41,4.72a22.66,22.66,0,0,1,1.49,7.63v9.51h-1.9l1.13,2.78c-4.25,2-3.74-.56-4.92,3.87l5.64-2-.26,3,.2,3.81.12,7.59-.24,4.75c.24,3.58-.39,1.8-.71,5.7h1.9v4.75h-1.9v1.9l3.09,2.65,3.56.2v1.9c1.58-1.67.7-1.79,2.85-1l-.9-2.87,2.8,0v1.9l7.7-1.54,5.6-.07,11.39.84-1-2,2.17-1.76-2.33-6.78-3.56,1.85a5.57,5.57,0,0,0-3.81-1H634.85l1.95-3.77-1.14-1.88-1.76-.05-.52,2-.43-3h2.85v-3.8l-2.87.9,0-25.61c0-2.72.3-1.74,1.9-2.85-.84,4-1.33,3.69,3.8,3.8l1.94-2.82-5-1.19,5.89.43,0-2.13Z"/><path class="cls-2" d="M551.3,335.91c-4.1,0-9.59-1-9.59,2.8,0,5.83,10.45,26.53,10.46,35.16v1c0,2.57.46,2.62,1,4.76l-2.87.89,1,1.9-2.17,1.76,3,.19v1.9h-1.9l2.17,4.25.92-.24-2.6,3.06.41,2.46c-2.94,3.13-3.36,1-3.75,5.68,3.94.92,3.64.1,4.75,2.85,3.9-.32,2.12-.95,5.7-1h1.9l1.71-2.09.88-4.61-.87-2.73,5.22-3.53c-1-1.85-1.24-1.71-1.24-4.14v-1.9c0-2.91,0-4.32-1.9-5.7v3.8c-1.92-1.41-2.85-2.18-2.85-5.7,0-10.72,9.5-29.16,9.5-35.17v-5.7h-9.5l-.9,2.87,1.07,2.76-2-1c-.05,5-1,10.33-3.85,12.44-1.24-2.5-.95.78-.95-2.85,0-5.12-.79-10.15-3.88-12.41Z"/><path class="cls-2" d="M306,88.76c10.32-19.51,20.25-35.32,38-47.53,14.2-9.77,39-21.84,62.74-21.85h4.75c27.33,0,48.42,10.15,65.2,21.28,12.59,8.35,34.7,32.27,38.39,48.1h248c21.91,0,36.94,16.47,39,36.11l1.21,10.43-.26,252.82c0,25.57-19,42.77-43.72,42.77H60.82C36.55,430.9,19,412.18,19,388.13V131.53c0-24,16.42-42.77,39-42.77H306ZM10.45,400.49c0,18.74,14.22,37.07,33.27,37.07H774.55c21.61,0,38-14.47,38-36.12V116.33c0-8.85-5.79-22.06-10.2-26.87C796.46,83,787.59,79.26,775.5,79.26H556l-33.25-1.12-1.91.17C510.89,59.59,499.4,45.94,483,33.45c-11.64-8.86-40.14-22.62-60.06-22.62-5,0-8.35-1.64-14.25-1l-10.45,1C372.06,13.91,354.86,21.52,337.74,34c-9.9,7.22-13.52,11.65-21.53,20.28-3.23,3.48-14.8,23.9-17.8,24l-37.05,1.2,37.05-.25H46.57c-21.55,0-36.12,15.63-36.11,38Z"/></g></g></svg>